<svg id="Group_245" data-name="Group 245" xmlns="http://www.w3.org/2000/svg" width="135" height="135" viewBox="0 0 135 135">
  <g id="Group_264" data-name="Group 264">
    <circle id="Ellipse_6" data-name="Ellipse 6" cx="58.822" cy="58.822" r="58.822" transform="translate(8.723 9.134)"/>
    <g id="Path_22" data-name="Path 22" transform="translate(16.441 16.797)" fill="none" stroke-linecap="round" stroke-dasharray="428 999999">
      <path d="M51.354,0A51.354,51.354,0,1,1,0,51.354,51.354,51.354,0,0,1,51.354,0Z" stroke="none"/>
      <path d="M 51.3536376953125 0 C 62.24551773071289 0 72.34445190429688 3.390190124511719 80.65431976318359 9.173866271972656 C 83.16402435302734 10.92053985595703 85.51045227050781 12.88544464111328 87.66613006591797 15.04113006591797 C 89.84592437744141 17.22092437744141 91.83055114746094 19.59559631347656 93.59181976318359 22.13706207275391 C 99.22659301757812 30.26708984375 102.5731201171875 40.09931182861328 102.7033157348633 50.70932006835938 C 102.7057800292969 50.90997314453125 102.7070999145508 51.11089706420898 102.7072601318359 51.31209564208984 C 102.7072677612305 51.32594299316406 102.707275390625 51.33979034423828 102.707275390625 51.3536376953125 C 102.707275390625 51.49212265014648 102.7067260742188 51.6304817199707 102.7056350708008 51.76870727539062 C 102.6162261962891 63.06188201904297 98.88108825683594 73.48741149902344 92.61988830566406 81.92527770996094 C 91.11033630371094 83.95950317382812 89.45369720458984 85.87857055664062 87.66613006591797 87.66613006591797 C 85.87857055664062 89.45369720458984 83.95950317382812 91.11033630371094 81.92527770996094 92.61988830566406 C 73.48741149902344 98.88108825683594 63.06188201904297 102.6162261962891 51.76870727539062 102.7056350708008 C 51.41580581665039 102.7084274291992 51.06186294555664 102.707649230957 50.70932006835938 102.7033157348633 C 40.09931182861328 102.5731201171875 30.26708984375 99.22659301757812 22.13706207275391 93.59181976318359 C 19.59559631347656 91.83055114746094 17.22092437744141 89.84592437744141 15.04113006591797 87.66613006591797 C 12.88544464111328 85.51045227050781 10.92053985595703 83.16402435302734 9.173866271972656 80.65431976318359 C 3.463729858398438 72.45010375976562 0.08661651611328125 62.50205993652344 0.00164031982421875 51.76870727539062 C 0.00054931640625 51.6304817199707 0 51.49212265014648 0 51.3536376953125 C 0 51.33979034423828 7.62939453125e-06 51.32594299316406 1.52587890625e-05 51.31209564208984 C 0.00017547607421875 51.11089706420898 0.001495361328125 50.90997314453125 0.00395965576171875 50.70932006835938 C 0.123291015625 40.98477554321289 2.944480895996094 31.91402435302734 7.753196716308594 24.20755004882812 C 9.460960388183594 21.47039794921875 11.41893005371094 18.90621948242188 13.59574890136719 16.54609680175781 C 14.53996276855469 15.52227783203125 15.52227783203125 14.53996276855469 16.54609680175781 13.59574890136719 C 18.90621948242188 11.41893005371094 21.47039794921875 9.460960388183594 24.20755004882812 7.753196716308594 C 31.91402435302734 2.944480895996094 40.98477554321289 0.123291015625 50.70932006835938 0.00395965576171875 C 50.92378234863281 0.00131988525390625 51.13855743408203 -6.866455078125e-05 51.3536376953125 0 Z M 51.3536376953125 97.707275390625 C 57.61354827880859 97.707275390625 63.68352890014648 96.48238372802734 69.39501953125 94.06661987304688 C 74.9141845703125 91.73222351074219 79.8719482421875 88.38925170898438 84.13059997558594 84.13059997558594 C 88.38925170898438 79.8719482421875 91.73222351074219 74.9141845703125 94.06661987304688 69.39501953125 C 96.48238372802734 63.68352890014648 97.707275390625 57.61354827880859 97.707275390625 51.3536376953125 C 97.707275390625 45.09372711181641 96.48238372802734 39.02372741699219 94.06661987304688 33.31224060058594 C 91.73222351074219 27.79307556152344 88.38925170898438 22.83531188964844 84.13059997558594 18.57667541503906 C 79.8719482421875 14.31801605224609 74.9141845703125 10.97505950927734 69.39501953125 8.640640258789062 C 63.68354797363281 6.224891662597656 57.61354827880859 5 51.3536376953125 5 C 51.3536376953125 5 51.3536376953125 5 51.3536376953125 5 C 45.09372711181641 5 39.02372741699219 6.224891662597656 33.31224060058594 8.640640258789062 C 27.79307556152344 10.97505950927734 22.83531188964844 14.31801605224609 18.57665252685547 18.57665252685547 C 14.31801605224609 22.83531188964844 10.97505950927734 27.79307556152344 8.640640258789062 33.31224060058594 C 6.224891662597656 39.02372741699219 5 45.09372711181641 5 51.3536376953125 C 5 57.61354827880859 6.224891662597656 63.68354797363281 8.640640258789062 69.39501953125 C 10.97505950927734 74.9141845703125 14.31801605224609 79.8719482421875 18.57667541503906 84.13059997558594 C 22.83531188964844 88.38925170898438 27.79307556152344 91.73222351074219 33.31224060058594 94.06661987304688 C 39.02372741699219 96.48238372802734 45.09372711181641 97.707275390625 51.3536376953125 97.707275390625 Z" stroke="none" fill="#fff"/>
    </g>
    <g id="Ellipse_6-2" data-name="Ellipse 6" fill="none" stroke="#9f8268" stroke-width="6">
      <circle cx="67.5" cy="67.5" r="67.5" stroke="none"/>
      <circle cx="67.5" cy="67.5" r="64.5" fill="none"/>
    </g>
  </g>
</svg>
