<svg xmlns="http://www.w3.org/2000/svg" xmlns:xlink="http://www.w3.org/1999/xlink" width="1400" height="684" viewBox="0 0 1400 684">
  <defs>
    <clipPath id="clip-Artboard_5">
      <rect width="1400" height="684"/>
    </clipPath>
  </defs>
  <g id="Artboard_5" data-name="Artboard – 5" clip-path="url(#clip-Artboard_5)">
    <rect width="1400" height="684" fill="#fff"/>
    <g id="Group_281" data-name="Group 281" transform="translate(213.186 34.88)">
      <path id="Icon_awesome-question-circle" data-name="Icon awesome-question-circle" d="M184.681,92.622A92.059,92.059,0,1,1,92.622.562,92.054,92.054,0,0,1,184.681,92.622ZM95.092,31c-20.23,0-33.132,8.522-43.264,23.667A4.461,4.461,0,0,0,52.836,60.7L65.717,70.47a4.453,4.453,0,0,0,6.186-.788c6.631-8.411,11.178-13.288,21.271-13.288,7.583,0,16.963,4.881,16.963,12.234,0,5.559-4.589,8.414-12.077,12.612-8.732,4.9-20.287,10.988-20.287,26.229v1.485a4.455,4.455,0,0,0,4.454,4.454h20.788a4.455,4.455,0,0,0,4.454-4.454v-.495c0-10.565,30.879-11.005,30.879-39.6C138.349,47.334,116.016,31,95.092,31Zm-2.47,92.059A17.076,17.076,0,1,0,109.7,140.136,17.095,17.095,0,0,0,92.622,123.061Z" transform="translate(-78.73 34.437)" fill="#fdf4ec" opacity="0.5"/>
      <path id="Icon_ionic-md-mail" data-name="Icon ionic-md-mail" d="M251.561,9.285,30.677.745C16.382.193,4.631,11,4.56,24.764l-.806,156.4c-.071,13.764,11.564,25.476,25.858,26.028l220.884,8.54c14.294.553,26.045-10.255,26.116-24.019l.806-156.4C277.49,21.549,265.855,9.838,251.561,9.285Zm-3.521,53.049L140.49,127,33.65,54.045l.129-25.023,106.84,72.958L248.168,37.311Z" transform="matrix(0.875, -0.485, 0.485, 0.875, 839.581, 120.243)" fill="#fdf4ec" opacity="0.5"/>
    </g>
  </g>
</svg>
