<svg xmlns="http://www.w3.org/2000/svg" width="80" height="80" viewBox="0 0 80 80">
  <g id="Group_268" data-name="Group 268" transform="translate(-35.5 -381.858)">
    <g id="Group_190" data-name="Group 190" transform="translate(-137 -2148.151)">
      <g id="Group_14" data-name="Group 14" transform="translate(-570.5 154.009)">
        <path id="Path_65" data-name="Path 65" d="M40,0A40,40,0,1,1,0,40,40,40,0,0,1,40,0Z" transform="translate(743 2376)" fill="#9f8268"/>
      </g>
      <g id="Path_206" data-name="Path 206" transform="translate(177.55 2534.761)" fill="none">
        <path d="M35.225,0A35.225,35.225,0,1,1,0,35.225,35.225,35.225,0,0,1,35.225,0Z" stroke="none"/>
        <path d="M 35.22515487670898 3.999992370605469 C 31.00802993774414 3.999992370605469 26.91916656494141 4.825027465820312 23.0721435546875 6.452178955078125 C 19.35435485839844 8.024665832519531 16.01459121704102 10.27667999267578 13.1456298828125 13.1456298828125 C 10.27667999267578 16.01459121704102 8.024665832519531 19.35435485839844 6.452178955078125 23.0721435546875 C 4.825027465820312 26.91916656494141 3.999992370605469 31.00802993774414 3.999992370605469 35.22515487670898 C 3.999992370605469 39.44227981567383 4.825027465820312 43.53114318847656 6.452178955078125 47.37816619873047 C 8.024665832519531 51.09595489501953 10.27667999267578 54.43571472167969 13.1456298828125 57.30466842651367 C 16.01459121704102 60.17362976074219 19.35435485839844 62.42562866210938 23.0721435546875 63.99811553955078 C 26.91915512084961 65.62526702880859 31.00802993774414 66.45030212402344 35.22515487670898 66.45030212402344 C 39.44227981567383 66.45030212402344 43.53114318847656 65.62526702880859 47.37816619873047 63.99811553955078 C 51.09595489501953 62.42562866210938 54.43571472167969 60.17362976074219 57.30466842651367 57.30466842651367 C 60.17362976074219 54.43571472167969 62.42562866210938 51.09595489501953 63.99811553955078 47.37816619873047 C 65.62526702880859 43.53114318847656 66.45030212402344 39.44227981567383 66.45030212402344 35.22515487670898 C 66.45030212402344 31.00802993774414 65.62526702880859 26.91915512084961 63.99811553955078 23.0721435546875 C 62.42562866210938 19.35435485839844 60.17362976074219 16.01459121704102 57.30466842651367 13.1456298828125 C 54.43571472167969 10.27667999267578 51.09595489501953 8.024665832519531 47.37816619873047 6.452178955078125 C 43.53114318847656 4.825027465820312 39.44227981567383 3.999992370605469 35.22515487670898 3.999992370605469 M 35.22515487670898 -7.62939453125e-06 C 54.67946624755859 -7.62939453125e-06 70.45030212402344 15.77084350585938 70.45030212402344 35.22515487670898 C 70.45030212402344 54.67946624755859 54.67946624755859 70.45030212402344 35.22515487670898 70.45030212402344 C 15.77084350585938 70.45030212402344 -7.62939453125e-06 54.67946624755859 -7.62939453125e-06 35.22515487670898 C -7.62939453125e-06 15.77084350585938 15.77084350585938 -7.62939453125e-06 35.22515487670898 -7.62939453125e-06 Z" stroke="none" fill="#fff"/>
      </g>
    </g>
    <g id="social-media_1_" data-name="social-media (1)" transform="translate(55.34 402.137)">
      <path id="Path_139" data-name="Path 139" d="M365.269,354.038a1.559,1.559,0,1,0-1.559-1.559,1.561,1.561,0,0,0,1.559,1.559Z" transform="translate(-335.068 -323.285)" fill="#fff"/>
      <path id="Path_140" data-name="Path 140" d="M339.889,420.51h0a3.732,3.732,0,0,0-3.727,3.729v2.767a10.16,10.16,0,0,0,7.457,0v-2.767A3.733,3.733,0,0,0,339.889,420.51Z" transform="translate(-309.687 -387.395)" fill="#fff"/>
      <path id="Path_141" data-name="Path 141" d="M30.2,20.081a10.07,10.07,0,0,0-6.275,2.187l-5.911-5.811.051-.063a10.1,10.1,0,0,0,2.1-5.094h7.874a6.2,6.2,0,1,0,0-2.362H20.169A10.12,10.12,0,1,0,4.028,18.207V16.763a6.1,6.1,0,0,1,3-5.245,3.921,3.921,0,1,1,6.187,0,6.115,6.115,0,0,1,2.826,3.809,10.93,10.93,0,0,1,.171,2.881l6.035,5.746a10.071,10.071,0,0,0-2.094,5.065H12.276a6.2,6.2,0,1,0,0,2.362H20.15a10.108,10.108,0,0,0,3.96,6.907V36.844a6.094,6.094,0,0,1,3-5.245,3.922,3.922,0,1,1,6.187,0,6.1,6.1,0,0,1,3,5.245v1.444A10.124,10.124,0,0,0,30.2,20.081Z" transform="translate(0 0)" fill="#fff"/>
      <path id="Path_142" data-name="Path 142" d="M111.818,97.478a1.559,1.559,0,1,0-1.558,1.558A1.56,1.56,0,0,0,111.818,97.478Z" transform="translate(-100.14 -88.366)" fill="#fff"/>
      <path id="Path_143" data-name="Path 143" d="M81.15,169.23V172a10.161,10.161,0,0,0,7.457,0V169.23a3.728,3.728,0,1,0-7.457,0Z" transform="translate(-74.759 -152.467)" fill="#fff"/>
    </g>
  </g>
</svg>
