<svg xmlns="http://www.w3.org/2000/svg" width="80" height="80" viewBox="0 0 80 80">
  <g id="Group_267" data-name="Group 267" transform="translate(-35.5 -281.858)">
    <g id="Group_190" data-name="Group 190" transform="translate(-137 -2248.151)">
      <g id="Group_14" data-name="Group 14" transform="translate(-570.5 154.009)">
        <path id="Path_65" data-name="Path 65" d="M40,0A40,40,0,1,1,0,40,40,40,0,0,1,40,0Z" transform="translate(743 2376)" fill="#9f8268"/>
      </g>
      <g id="Path_206" data-name="Path 206" transform="translate(177.55 2534.761)" fill="none">
        <path d="M35.225,0A35.225,35.225,0,1,1,0,35.225,35.225,35.225,0,0,1,35.225,0Z" stroke="none"/>
        <path d="M 35.22515487670898 3.999992370605469 C 31.00802993774414 3.999992370605469 26.91916656494141 4.825027465820312 23.0721435546875 6.452178955078125 C 19.35435485839844 8.024665832519531 16.01459121704102 10.27667999267578 13.1456298828125 13.1456298828125 C 10.27667999267578 16.01459121704102 8.024665832519531 19.35435485839844 6.452178955078125 23.0721435546875 C 4.825027465820312 26.91916656494141 3.999992370605469 31.00802993774414 3.999992370605469 35.22515487670898 C 3.999992370605469 39.44227981567383 4.825027465820312 43.53114318847656 6.452178955078125 47.37816619873047 C 8.024665832519531 51.09595489501953 10.27667999267578 54.43571472167969 13.1456298828125 57.30466842651367 C 16.01459121704102 60.17362976074219 19.35435485839844 62.42562866210938 23.0721435546875 63.99811553955078 C 26.91915512084961 65.62526702880859 31.00802993774414 66.45030212402344 35.22515487670898 66.45030212402344 C 39.44227981567383 66.45030212402344 43.53114318847656 65.62526702880859 47.37816619873047 63.99811553955078 C 51.09595489501953 62.42562866210938 54.43571472167969 60.17362976074219 57.30466842651367 57.30466842651367 C 60.17362976074219 54.43571472167969 62.42562866210938 51.09595489501953 63.99811553955078 47.37816619873047 C 65.62526702880859 43.53114318847656 66.45030212402344 39.44227981567383 66.45030212402344 35.22515487670898 C 66.45030212402344 31.00802993774414 65.62526702880859 26.91915512084961 63.99811553955078 23.0721435546875 C 62.42562866210938 19.35435485839844 60.17362976074219 16.01459121704102 57.30466842651367 13.1456298828125 C 54.43571472167969 10.27667999267578 51.09595489501953 8.024665832519531 47.37816619873047 6.452178955078125 C 43.53114318847656 4.825027465820312 39.44227981567383 3.999992370605469 35.22515487670898 3.999992370605469 M 35.22515487670898 -7.62939453125e-06 C 54.67946624755859 -7.62939453125e-06 70.45030212402344 15.77084350585938 70.45030212402344 35.22515487670898 C 70.45030212402344 54.67946624755859 54.67946624755859 70.45030212402344 35.22515487670898 70.45030212402344 C 15.77084350585938 70.45030212402344 -7.62939453125e-06 54.67946624755859 -7.62939453125e-06 35.22515487670898 C -7.62939453125e-06 15.77084350585938 15.77084350585938 -7.62939453125e-06 35.22515487670898 -7.62939453125e-06 Z" stroke="none" fill="#fff"/>
      </g>
    </g>
    <g id="payment" transform="translate(54.639 297.016)">
      <path id="Path_53" data-name="Path 53" d="M141.386,290.007l-4.836,6.324a5.115,5.115,0,0,1-4.063,2.008h-8.98a1.279,1.279,0,1,1,0-2.557h7.783a3.03,3.03,0,0,0,3.042-3.042,2.983,2.983,0,0,0-2.983-2.925H122.4a7.4,7.4,0,0,0-9.436-.688l-.963.688v14.491h22.236a7.672,7.672,0,0,0,6.453-3.523l4.99-7.762a2.625,2.625,0,0,0-4.293-3.014Z" transform="translate(-102.453 -263.221)" fill="#fff"/>
      <path id="Path_54" data-name="Path 54" d="M5.711,282H1.279A1.279,1.279,0,0,0,0,283.279v17.048a1.279,1.279,0,0,0,1.279,1.279H5.711a1.279,1.279,0,0,0,1.279-1.279V283.279A1.279,1.279,0,0,0,5.711,282Z" transform="translate(0 -257.963)" fill="#fff"/>
      <path id="Path_55" data-name="Path 55" d="M281.2,82.9a1.269,1.269,0,0,0-.453.763.883.883,0,0,0,.22.855c.071.056.149.11.233.164Z" transform="translate(-256.799 -75.838)" fill="#fff"/>
      <path id="Path_56" data-name="Path 56" d="M182.655,21.31A10.655,10.655,0,1,0,172,10.655,10.667,10.667,0,0,0,182.655,21.31Zm-3.225-7.171a.852.852,0,0,1,1.18-.247,2.581,2.581,0,0,0,1.134.486v-3.6a6.287,6.287,0,0,1-1.285-.752,2.551,2.551,0,0,1-.843-2.512,2.871,2.871,0,0,1,1.969-2.251c.054-.016.106-.031.159-.045v-.53a.852.852,0,0,1,1.7,0v.437a2.96,2.96,0,0,1,1.7.876.852.852,0,0,1-1.281,1.125,1.174,1.174,0,0,0-.415-.246V9.635c.151.056.3.111.451.163a3.051,3.051,0,0,1,2.074,3.451,3.467,3.467,0,0,1-2.525,2.762v.61a.852.852,0,0,1-1.7,0v-.529a4.127,4.127,0,0,1-2.067-.774A.852.852,0,0,1,179.43,14.139Z" transform="translate(-157.339)" fill="#fff"/>
      <path id="Path_57" data-name="Path 57" d="M307.153,135.855a1.319,1.319,0,0,0-.844-1.516v2.738A1.762,1.762,0,0,0,307.153,135.855Z" transform="translate(-280.199 -122.888)" fill="#fff"/>
    </g>
  </g>
</svg>
