<svg xmlns="http://www.w3.org/2000/svg" width="80" height="80" viewBox="0 0 80 80">
  <g id="Group_269" data-name="Group 269" transform="translate(-35.5 -481.858)">
    <g id="Group_190" data-name="Group 190" transform="translate(-137 -2048.151)">
      <g id="Group_14" data-name="Group 14" transform="translate(-570.5 154.009)">
        <path id="Path_65" data-name="Path 65" d="M40,0A40,40,0,1,1,0,40,40,40,0,0,1,40,0Z" transform="translate(743 2376)" fill="#9f8268"/>
      </g>
      <g id="Path_206" data-name="Path 206" transform="translate(177.55 2534.761)" fill="none">
        <path d="M35.225,0A35.225,35.225,0,1,1,0,35.225,35.225,35.225,0,0,1,35.225,0Z" stroke="none"/>
        <path d="M 35.22515487670898 3.999992370605469 C 31.00802993774414 3.999992370605469 26.91916656494141 4.825027465820312 23.0721435546875 6.452178955078125 C 19.35435485839844 8.024665832519531 16.01459121704102 10.27667999267578 13.1456298828125 13.1456298828125 C 10.27667999267578 16.01459121704102 8.024665832519531 19.35435485839844 6.452178955078125 23.0721435546875 C 4.825027465820312 26.91916656494141 3.999992370605469 31.00802993774414 3.999992370605469 35.22515487670898 C 3.999992370605469 39.44227981567383 4.825027465820312 43.53114318847656 6.452178955078125 47.37816619873047 C 8.024665832519531 51.09595489501953 10.27667999267578 54.43571472167969 13.1456298828125 57.30466842651367 C 16.01459121704102 60.17362976074219 19.35435485839844 62.42562866210938 23.0721435546875 63.99811553955078 C 26.91915512084961 65.62526702880859 31.00802993774414 66.45030212402344 35.22515487670898 66.45030212402344 C 39.44227981567383 66.45030212402344 43.53114318847656 65.62526702880859 47.37816619873047 63.99811553955078 C 51.09595489501953 62.42562866210938 54.43571472167969 60.17362976074219 57.30466842651367 57.30466842651367 C 60.17362976074219 54.43571472167969 62.42562866210938 51.09595489501953 63.99811553955078 47.37816619873047 C 65.62526702880859 43.53114318847656 66.45030212402344 39.44227981567383 66.45030212402344 35.22515487670898 C 66.45030212402344 31.00802993774414 65.62526702880859 26.91915512084961 63.99811553955078 23.0721435546875 C 62.42562866210938 19.35435485839844 60.17362976074219 16.01459121704102 57.30466842651367 13.1456298828125 C 54.43571472167969 10.27667999267578 51.09595489501953 8.024665832519531 47.37816619873047 6.452178955078125 C 43.53114318847656 4.825027465820312 39.44227981567383 3.999992370605469 35.22515487670898 3.999992370605469 M 35.22515487670898 -7.62939453125e-06 C 54.67946624755859 -7.62939453125e-06 70.45030212402344 15.77084350585938 70.45030212402344 35.22515487670898 C 70.45030212402344 54.67946624755859 54.67946624755859 70.45030212402344 35.22515487670898 70.45030212402344 C 15.77084350585938 70.45030212402344 -7.62939453125e-06 54.67946624755859 -7.62939453125e-06 35.22515487670898 C -7.62939453125e-06 15.77084350585938 15.77084350585938 -7.62939453125e-06 35.22515487670898 -7.62939453125e-06 Z" stroke="none" fill="#fff"/>
      </g>
    </g>
    <g id="idea_1_" data-name="idea (1)" transform="translate(56.299 499.936)">
      <path id="Path_144" data-name="Path 144" d="M48.255,277.311a4.177,4.177,0,1,0-4.177,4.177A4.182,4.182,0,0,0,48.255,277.311Z" transform="translate(-36.927 -252.649)" fill="#fff"/>
      <path id="Path_145" data-name="Path 145" d="M369.589,277.311a4.177,4.177,0,1,0-4.177,4.177A4.182,4.182,0,0,0,369.589,277.311Z" transform="translate(-334.161 -252.649)" fill="#fff"/>
      <path id="Path_146" data-name="Path 146" d="M208.922,277.311a4.177,4.177,0,1,0-4.178,4.177A4.182,4.182,0,0,0,208.922,277.311Z" transform="translate(-185.544 -252.649)" fill="#fff"/>
      <path id="Path_147" data-name="Path 147" d="M11.631,386.111A7.167,7.167,0,0,0,0,391.679v1.285a1.125,1.125,0,0,0,1.125,1.125H9.994a3.359,3.359,0,0,1-.194-1.125v-1.285a9.35,9.35,0,0,1,1.831-5.567Z" transform="translate(0 -355.689)" fill="#fff"/>
      <path id="Path_148" data-name="Path 148" d="M361.4,384.534a7.115,7.115,0,0,0-4.481,1.583,9.349,9.349,0,0,1,1.831,5.567v1.285a3.359,3.359,0,0,1-.194,1.125h8.869a1.125,1.125,0,0,0,1.125-1.125v-1.285A7.158,7.158,0,0,0,361.4,384.534Z" transform="translate(-330.153 -355.694)" fill="#fff"/>
      <path id="Path_149" data-name="Path 149" d="M167.818,384.534a7.158,7.158,0,0,0-7.15,7.15v1.285a1.125,1.125,0,0,0,1.125,1.125h12.05a1.125,1.125,0,0,0,1.125-1.125v-1.285A7.158,7.158,0,0,0,167.818,384.534Z" transform="translate(-148.618 -355.694)" fill="#fff"/>
      <path id="Path_150" data-name="Path 150" d="M114.389.33A1.125,1.125,0,1,0,112.8,1.921L114,3.126a1.125,1.125,0,1,0,1.591-1.591Z" transform="translate(-104.033 -0.001)" fill="#fff"/>
      <path id="Path_151" data-name="Path 151" d="M114,128.863l-1.2,1.205a1.125,1.125,0,1,0,1.591,1.591l1.2-1.205A1.125,1.125,0,0,0,114,128.863Z" transform="translate(-104.033 -118.894)" fill="#fff"/>
      <path id="Path_152" data-name="Path 152" d="M83.718,74.55h1.7a1.125,1.125,0,0,0,0-2.25h-1.7A1.125,1.125,0,0,0,83.718,74.55Z" transform="translate(-76.404 -66.878)" fill="#fff"/>
      <path id="Path_153" data-name="Path 153" d="M355.388,3.127l1.2-1.205A1.125,1.125,0,1,0,355,.331L353.8,1.536a1.125,1.125,0,0,0,1.591,1.591Z" transform="translate(-326.957 -0.001)" fill="#fff"/>
      <path id="Path_154" data-name="Path 154" d="M355,131.659a1.125,1.125,0,0,0,1.591-1.591l-1.2-1.205a1.125,1.125,0,0,0-1.591,1.591Z" transform="translate(-326.957 -118.894)" fill="#fff"/>
      <path id="Path_155" data-name="Path 155" d="M376.76,73.425a1.125,1.125,0,0,0,1.125,1.125h1.7a1.125,1.125,0,0,0,0-2.25h-1.7A1.125,1.125,0,0,0,376.76,73.425Z" transform="translate(-348.503 -66.878)" fill="#fff"/>
      <path id="Path_156" data-name="Path 156" d="M208.868,189.761a3.535,3.535,0,0,0,7.07,0v-.16h-7.07Z" transform="translate(-193.203 -175.381)" fill="#fff"/>
      <path id="Path_157" data-name="Path 157" d="M179.17,11.971h7.07a2.824,2.824,0,0,1,.771-1.928,5.944,5.944,0,1,0-8.612,0A2.824,2.824,0,0,1,179.17,11.971Z" transform="translate(-163.505 -0.001)" fill="#fff"/>
    </g>
  </g>
</svg>
