<svg xmlns="http://www.w3.org/2000/svg" width="80" height="80" viewBox="0 0 80 80">
  <g id="Group_272" data-name="Group 272" transform="translate(-35.5 -781.858)">
    <g id="Group_190" data-name="Group 190" transform="translate(-137 -1748.151)">
      <g id="Group_14" data-name="Group 14" transform="translate(-570.5 154.009)">
        <path id="Path_65" data-name="Path 65" d="M40,0A40,40,0,1,1,0,40,40,40,0,0,1,40,0Z" transform="translate(743 2376)" fill="#9f8268"/>
      </g>
      <g id="Path_206" data-name="Path 206" transform="translate(177.55 2534.761)" fill="none">
        <path d="M35.225,0A35.225,35.225,0,1,1,0,35.225,35.225,35.225,0,0,1,35.225,0Z" stroke="none"/>
        <path d="M 35.22515487670898 3.999992370605469 C 31.00802993774414 3.999992370605469 26.91916656494141 4.825027465820312 23.0721435546875 6.452178955078125 C 19.35435485839844 8.024665832519531 16.01459121704102 10.27667999267578 13.1456298828125 13.1456298828125 C 10.27667999267578 16.01459121704102 8.024665832519531 19.35435485839844 6.452178955078125 23.0721435546875 C 4.825027465820312 26.91916656494141 3.999992370605469 31.00802993774414 3.999992370605469 35.22515487670898 C 3.999992370605469 39.44227981567383 4.825027465820312 43.53114318847656 6.452178955078125 47.37816619873047 C 8.024665832519531 51.09595489501953 10.27667999267578 54.43571472167969 13.1456298828125 57.30466842651367 C 16.01459121704102 60.17362976074219 19.35435485839844 62.42562866210938 23.0721435546875 63.99811553955078 C 26.91915512084961 65.62526702880859 31.00802993774414 66.45030212402344 35.22515487670898 66.45030212402344 C 39.44227981567383 66.45030212402344 43.53114318847656 65.62526702880859 47.37816619873047 63.99811553955078 C 51.09595489501953 62.42562866210938 54.43571472167969 60.17362976074219 57.30466842651367 57.30466842651367 C 60.17362976074219 54.43571472167969 62.42562866210938 51.09595489501953 63.99811553955078 47.37816619873047 C 65.62526702880859 43.53114318847656 66.45030212402344 39.44227981567383 66.45030212402344 35.22515487670898 C 66.45030212402344 31.00802993774414 65.62526702880859 26.91915512084961 63.99811553955078 23.0721435546875 C 62.42562866210938 19.35435485839844 60.17362976074219 16.01459121704102 57.30466842651367 13.1456298828125 C 54.43571472167969 10.27667999267578 51.09595489501953 8.024665832519531 47.37816619873047 6.452178955078125 C 43.53114318847656 4.825027465820312 39.44227981567383 3.999992370605469 35.22515487670898 3.999992370605469 M 35.22515487670898 -7.62939453125e-06 C 54.67946624755859 -7.62939453125e-06 70.45030212402344 15.77084350585938 70.45030212402344 35.22515487670898 C 70.45030212402344 54.67946624755859 54.67946624755859 70.45030212402344 35.22515487670898 70.45030212402344 C 15.77084350585938 70.45030212402344 -7.62939453125e-06 54.67946624755859 -7.62939453125e-06 35.22515487670898 C -7.62939453125e-06 15.77084350585938 15.77084350585938 -7.62939453125e-06 35.22515487670898 -7.62939453125e-06 Z" stroke="none" fill="#fff"/>
      </g>
    </g>
    <g id="hierarchy" transform="translate(57 801)">
      <path id="Path_262" data-name="Path 262" d="M209.164,84.082a4.082,4.082,0,1,0-4.082,4.082A4.087,4.087,0,0,0,209.164,84.082Zm-5.937,0a1.855,1.855,0,1,1,1.855,1.855A1.858,1.858,0,0,1,203.227,84.082Z" transform="translate(-186.082 -74.063)" fill="#fff"/>
      <path id="Path_263" data-name="Path 263" d="M35.773,31.512v-6.5A1.113,1.113,0,0,0,34.66,23.9H29.978a3.339,3.339,0,0,0-6.3,0H20.113V20.039h1.113a1.113,1.113,0,0,0,1.113-1.113v-1.46a8.081,8.081,0,0,0,1.436-.832l1.267.732a1.113,1.113,0,0,0,1.521-.407L28.79,13.1a1.113,1.113,0,0,0-.407-1.521l-1.261-.728a8.229,8.229,0,0,0,0-1.665l1.261-.728a1.113,1.113,0,0,0,.407-1.521L26.564,3.081a1.113,1.113,0,0,0-1.521-.407l-1.267.732a8.078,8.078,0,0,0-1.436-.832V1.113A1.113,1.113,0,0,0,21.227,0H16.773A1.113,1.113,0,0,0,15.66,1.113v1.46a8.081,8.081,0,0,0-1.436.832l-1.267-.732a1.113,1.113,0,0,0-1.521.407L9.21,6.938a1.113,1.113,0,0,0,.407,1.521l1.261.728a8.236,8.236,0,0,0,0,1.665l-1.261.728A1.113,1.113,0,0,0,9.21,13.1l2.227,3.856a1.113,1.113,0,0,0,1.521.407l1.267-.732a8.081,8.081,0,0,0,1.436.832v1.46a1.113,1.113,0,0,0,1.113,1.113h1.113V23.9H14.318a3.339,3.339,0,0,0-6.3,0H3.34a1.113,1.113,0,0,0-1.113,1.113v6.5a3.34,3.34,0,1,0,2.227,0V26.125H8.022a3.339,3.339,0,0,0,6.3,0h3.568v5.387a3.34,3.34,0,1,0,2.227,0V26.125h3.568a3.339,3.339,0,0,0,6.3,0h3.568v5.387a3.34,3.34,0,1,0,2.227,0ZM17.125,15.65a5.894,5.894,0,0,1-2.06-1.193,1.113,1.113,0,0,0-1.3-.131l-.962.555-1.113-1.928.954-.551a1.113,1.113,0,0,0,.534-1.187,6,6,0,0,1,0-2.39,1.113,1.113,0,0,0-.534-1.187l-.954-.551,1.113-1.928.962.555a1.113,1.113,0,0,0,1.3-.131,5.894,5.894,0,0,1,2.06-1.193,1.113,1.113,0,0,0,.761-1.056V2.227h2.227V3.333a1.113,1.113,0,0,0,.762,1.056,5.893,5.893,0,0,1,2.06,1.193,1.113,1.113,0,0,0,1.3.131l.962-.555,1.113,1.928-.954.551a1.113,1.113,0,0,0-.534,1.187,6,6,0,0,1,0,2.389,1.113,1.113,0,0,0,.534,1.187l.954.551L25.192,14.88l-.962-.555a1.114,1.114,0,0,0-1.3.131,5.893,5.893,0,0,1-2.06,1.193,1.113,1.113,0,0,0-.762,1.056v1.107H17.887V16.706A1.113,1.113,0,0,0,17.125,15.65ZM3.34,35.773A1.113,1.113,0,1,1,4.453,34.66,1.115,1.115,0,0,1,3.34,35.773Zm7.83-9.648a1.113,1.113,0,1,1,1.113-1.113A1.115,1.115,0,0,1,11.17,26.125ZM19,35.773a1.113,1.113,0,1,1,1.113-1.113A1.115,1.115,0,0,1,19,35.773Zm7.83-9.648a1.113,1.113,0,1,1,1.113-1.113A1.115,1.115,0,0,1,26.83,26.125Zm7.83,9.648a1.113,1.113,0,1,1,1.113-1.113A1.115,1.115,0,0,1,34.66,35.773Z" fill="#fff"/>
    </g>
  </g>
</svg>
