<svg xmlns="http://www.w3.org/2000/svg" width="80" height="80" viewBox="0 0 80 80">
  <g id="Group_265" data-name="Group 265" transform="translate(-35.5 -81.858)">
    <g id="Group_190" data-name="Group 190" transform="translate(-137 -2448.151)">
      <g id="Group_14" data-name="Group 14" transform="translate(-570.5 154.009)">
        <path id="Path_65" data-name="Path 65" d="M40,0A40,40,0,1,1,0,40,40,40,0,0,1,40,0Z" transform="translate(743 2376)" fill="#9f8268"/>
      </g>
      <g id="Path_206" data-name="Path 206" transform="translate(177.55 2534.761)" fill="none">
        <path d="M35.225,0A35.225,35.225,0,1,1,0,35.225,35.225,35.225,0,0,1,35.225,0Z" stroke="none"/>
        <path d="M 35.22515487670898 3.999992370605469 C 31.00802993774414 3.999992370605469 26.91916656494141 4.825027465820312 23.0721435546875 6.452178955078125 C 19.35435485839844 8.024665832519531 16.01459121704102 10.27667999267578 13.1456298828125 13.1456298828125 C 10.27667999267578 16.01459121704102 8.024665832519531 19.35435485839844 6.452178955078125 23.0721435546875 C 4.825027465820312 26.91916656494141 3.999992370605469 31.00802993774414 3.999992370605469 35.22515487670898 C 3.999992370605469 39.44227981567383 4.825027465820312 43.53114318847656 6.452178955078125 47.37816619873047 C 8.024665832519531 51.09595489501953 10.27667999267578 54.43571472167969 13.1456298828125 57.30466842651367 C 16.01459121704102 60.17362976074219 19.35435485839844 62.42562866210938 23.0721435546875 63.99811553955078 C 26.91915512084961 65.62526702880859 31.00802993774414 66.45030212402344 35.22515487670898 66.45030212402344 C 39.44227981567383 66.45030212402344 43.53114318847656 65.62526702880859 47.37816619873047 63.99811553955078 C 51.09595489501953 62.42562866210938 54.43571472167969 60.17362976074219 57.30466842651367 57.30466842651367 C 60.17362976074219 54.43571472167969 62.42562866210938 51.09595489501953 63.99811553955078 47.37816619873047 C 65.62526702880859 43.53114318847656 66.45030212402344 39.44227981567383 66.45030212402344 35.22515487670898 C 66.45030212402344 31.00802993774414 65.62526702880859 26.91915512084961 63.99811553955078 23.0721435546875 C 62.42562866210938 19.35435485839844 60.17362976074219 16.01459121704102 57.30466842651367 13.1456298828125 C 54.43571472167969 10.27667999267578 51.09595489501953 8.024665832519531 47.37816619873047 6.452178955078125 C 43.53114318847656 4.825027465820312 39.44227981567383 3.999992370605469 35.22515487670898 3.999992370605469 M 35.22515487670898 -7.62939453125e-06 C 54.67946624755859 -7.62939453125e-06 70.45030212402344 15.77084350585938 70.45030212402344 35.22515487670898 C 70.45030212402344 54.67946624755859 54.67946624755859 70.45030212402344 35.22515487670898 70.45030212402344 C 15.77084350585938 70.45030212402344 -7.62939453125e-06 54.67946624755859 -7.62939453125e-06 35.22515487670898 C -7.62939453125e-06 15.77084350585938 15.77084350585938 -7.62939453125e-06 35.22515487670898 -7.62939453125e-06 Z" stroke="none" fill="#fff"/>
      </g>
    </g>
    <g id="salon" transform="translate(55.34 98.164)">
      <path id="Path_137" data-name="Path 137" d="M2,18.36V43.224a3.36,3.36,0,0,0,3.36,3.36h7.392V43.9H6.032a1.344,1.344,0,0,1-1.344-1.344h8.064V41.208H4.688v-.672h8.064V39.192H4.688V38.52h8.064V37.176H4.688V36.5h8.064V35.16H4.688v-.672h8.064V33.144H4.688v-.672h8.064V31.128H4.688v-.672h8.064V29.112H4.688V28.44h8.064V27.1H4.688v-.672h8.064V25.08H4.688v-.672h8.064V23.064H4.688v-.672h8.064V21.048H4.688v-.672h8.064V19.032H4.688a1.344,1.344,0,0,1,1.344-1.344h6.72V15H5.36A3.36,3.36,0,0,0,2,18.36Z" transform="translate(-2 -6.264)" fill="#fff"/>
      <path id="Path_138" data-name="Path 138" d="M43.5,31.568a5.427,5.427,0,0,0-.982.093l-3.816-7.473L43.5,2,35.44,17.792,27.376,2l4.8,22.189-3.816,7.473a5.374,5.374,0,1,0,4.394,5.283A5.356,5.356,0,0,0,31.026,33l2.124-4.248a3.914,3.914,0,0,1,2.29-1.965,3.91,3.91,0,0,1,2.29,1.965L39.854,33a5.37,5.37,0,1,0,3.65-1.437ZM27.376,40.3a3.36,3.36,0,1,1,3.36-3.36A3.36,3.36,0,0,1,27.376,40.3Zm8.736-16.8v1.344H34.768V23.5ZM43.5,40.3a3.36,3.36,0,1,1,3.36-3.36A3.36,3.36,0,0,1,43.5,40.3Z" transform="translate(-8.56 -2)" fill="#fff"/>
    </g>
  </g>
</svg>
