<svg xmlns="http://www.w3.org/2000/svg" width="80" height="80" viewBox="0 0 80 80">
  <g id="Group_270" data-name="Group 270" transform="translate(-35.5 -581.858)">
    <g id="Group_190" data-name="Group 190" transform="translate(-137 -1948.151)">
      <g id="Group_14" data-name="Group 14" transform="translate(-570.5 154.009)">
        <path id="Path_65" data-name="Path 65" d="M40,0A40,40,0,1,1,0,40,40,40,0,0,1,40,0Z" transform="translate(743 2376)" fill="#9f8268"/>
      </g>
      <g id="Path_206" data-name="Path 206" transform="translate(177.55 2534.761)" fill="none">
        <path d="M35.225,0A35.225,35.225,0,1,1,0,35.225,35.225,35.225,0,0,1,35.225,0Z" stroke="none"/>
        <path d="M 35.22515487670898 3.999992370605469 C 31.00802993774414 3.999992370605469 26.91916656494141 4.825027465820312 23.0721435546875 6.452178955078125 C 19.35435485839844 8.024665832519531 16.01459121704102 10.27667999267578 13.1456298828125 13.1456298828125 C 10.27667999267578 16.01459121704102 8.024665832519531 19.35435485839844 6.452178955078125 23.0721435546875 C 4.825027465820312 26.91916656494141 3.999992370605469 31.00802993774414 3.999992370605469 35.22515487670898 C 3.999992370605469 39.44227981567383 4.825027465820312 43.53114318847656 6.452178955078125 47.37816619873047 C 8.024665832519531 51.09595489501953 10.27667999267578 54.43571472167969 13.1456298828125 57.30466842651367 C 16.01459121704102 60.17362976074219 19.35435485839844 62.42562866210938 23.0721435546875 63.99811553955078 C 26.91915512084961 65.62526702880859 31.00802993774414 66.45030212402344 35.22515487670898 66.45030212402344 C 39.44227981567383 66.45030212402344 43.53114318847656 65.62526702880859 47.37816619873047 63.99811553955078 C 51.09595489501953 62.42562866210938 54.43571472167969 60.17362976074219 57.30466842651367 57.30466842651367 C 60.17362976074219 54.43571472167969 62.42562866210938 51.09595489501953 63.99811553955078 47.37816619873047 C 65.62526702880859 43.53114318847656 66.45030212402344 39.44227981567383 66.45030212402344 35.22515487670898 C 66.45030212402344 31.00802993774414 65.62526702880859 26.91915512084961 63.99811553955078 23.0721435546875 C 62.42562866210938 19.35435485839844 60.17362976074219 16.01459121704102 57.30466842651367 13.1456298828125 C 54.43571472167969 10.27667999267578 51.09595489501953 8.024665832519531 47.37816619873047 6.452178955078125 C 43.53114318847656 4.825027465820312 39.44227981567383 3.999992370605469 35.22515487670898 3.999992370605469 M 35.22515487670898 -7.62939453125e-06 C 54.67946624755859 -7.62939453125e-06 70.45030212402344 15.77084350585938 70.45030212402344 35.22515487670898 C 70.45030212402344 54.67946624755859 54.67946624755859 70.45030212402344 35.22515487670898 70.45030212402344 C 15.77084350585938 70.45030212402344 -7.62939453125e-06 54.67946624755859 -7.62939453125e-06 35.22515487670898 C -7.62939453125e-06 15.77084350585938 15.77084350585938 -7.62939453125e-06 35.22515487670898 -7.62939453125e-06 Z" stroke="none" fill="#fff"/>
      </g>
    </g>
    <g id="increase" transform="translate(56 600.999)">
      <path id="Path_253" data-name="Path 253" d="M36.888,147.331H35.765V121.614a1.113,1.113,0,0,0-1.113-1.113H30.18a1.113,1.113,0,0,0-1.113,1.113v25.717H26.822V126.086a1.113,1.113,0,0,0-1.113-1.113H21.237a1.113,1.113,0,0,0-1.113,1.113v21.245H17.878V130.558a1.113,1.113,0,0,0-1.113-1.113H12.293a1.113,1.113,0,0,0-1.113,1.113v16.773H8.935v-12.3a1.113,1.113,0,0,0-1.113-1.113H3.35a1.113,1.113,0,0,0-1.113,1.113v12.3H1.114a1.113,1.113,0,0,0,0,2.227H36.888a1.113,1.113,0,0,0,0-2.227Z" transform="translate(-0.001 -111.557)" fill="#fff"/>
      <path id="Path_254" data-name="Path 254" d="M1.112,15.643c.037,0,.074,0,.111-.005a77.276,77.276,0,0,0,15.845-3.169A54.69,54.69,0,0,0,27.659,7.876a37.341,37.341,0,0,0,5.878-4.112V5.586a1.113,1.113,0,1,0,2.227,0V1.114A1.113,1.113,0,0,0,34.651,0H30.179a1.113,1.113,0,0,0,0,2.227H31.9a35.662,35.662,0,0,1-5.481,3.79C21.686,8.718,13.43,12.193,1,13.421a1.113,1.113,0,0,0,.108,2.221Z" transform="translate(0)" fill="#fff"/>
    </g>
  </g>
</svg>
