<svg xmlns="http://www.w3.org/2000/svg" width="80" height="80" viewBox="0 0 80 80">
  <g id="Group_271" data-name="Group 271" transform="translate(-35.5 -681.858)">
    <g id="Group_190" data-name="Group 190" transform="translate(-137 -1848.151)">
      <g id="Group_14" data-name="Group 14" transform="translate(-570.5 154.009)">
        <path id="Path_65" data-name="Path 65" d="M40,0A40,40,0,1,1,0,40,40,40,0,0,1,40,0Z" transform="translate(743 2376)" fill="#9f8268"/>
      </g>
      <g id="Path_206" data-name="Path 206" transform="translate(177.55 2534.761)" fill="none">
        <path d="M35.225,0A35.225,35.225,0,1,1,0,35.225,35.225,35.225,0,0,1,35.225,0Z" stroke="none"/>
        <path d="M 35.22515487670898 3.999992370605469 C 31.00802993774414 3.999992370605469 26.91916656494141 4.825027465820312 23.0721435546875 6.452178955078125 C 19.35435485839844 8.024665832519531 16.01459121704102 10.27667999267578 13.1456298828125 13.1456298828125 C 10.27667999267578 16.01459121704102 8.024665832519531 19.35435485839844 6.452178955078125 23.0721435546875 C 4.825027465820312 26.91916656494141 3.999992370605469 31.00802993774414 3.999992370605469 35.22515487670898 C 3.999992370605469 39.44227981567383 4.825027465820312 43.53114318847656 6.452178955078125 47.37816619873047 C 8.024665832519531 51.09595489501953 10.27667999267578 54.43571472167969 13.1456298828125 57.30466842651367 C 16.01459121704102 60.17362976074219 19.35435485839844 62.42562866210938 23.0721435546875 63.99811553955078 C 26.91915512084961 65.62526702880859 31.00802993774414 66.45030212402344 35.22515487670898 66.45030212402344 C 39.44227981567383 66.45030212402344 43.53114318847656 65.62526702880859 47.37816619873047 63.99811553955078 C 51.09595489501953 62.42562866210938 54.43571472167969 60.17362976074219 57.30466842651367 57.30466842651367 C 60.17362976074219 54.43571472167969 62.42562866210938 51.09595489501953 63.99811553955078 47.37816619873047 C 65.62526702880859 43.53114318847656 66.45030212402344 39.44227981567383 66.45030212402344 35.22515487670898 C 66.45030212402344 31.00802993774414 65.62526702880859 26.91915512084961 63.99811553955078 23.0721435546875 C 62.42562866210938 19.35435485839844 60.17362976074219 16.01459121704102 57.30466842651367 13.1456298828125 C 54.43571472167969 10.27667999267578 51.09595489501953 8.024665832519531 47.37816619873047 6.452178955078125 C 43.53114318847656 4.825027465820312 39.44227981567383 3.999992370605469 35.22515487670898 3.999992370605469 M 35.22515487670898 -7.62939453125e-06 C 54.67946624755859 -7.62939453125e-06 70.45030212402344 15.77084350585938 70.45030212402344 35.22515487670898 C 70.45030212402344 54.67946624755859 54.67946624755859 70.45030212402344 35.22515487670898 70.45030212402344 C 15.77084350585938 70.45030212402344 -7.62939453125e-06 54.67946624755859 -7.62939453125e-06 35.22515487670898 C -7.62939453125e-06 15.77084350585938 15.77084350585938 -7.62939453125e-06 35.22515487670898 -7.62939453125e-06 Z" stroke="none" fill="#fff"/>
      </g>
    </g>
    <g id="speedometer" transform="translate(55.5 666.51)">
      <path id="Path_255" data-name="Path 255" d="M97.808,35.154a19.863,19.863,0,0,0-12.135,5.028L90.9,45.412a12.534,12.534,0,0,1,6.906-2.861Z" transform="translate(-78.98)" fill="#fff"/>
      <path id="Path_256" data-name="Path 256" d="M10.275,125.951l-5.229-5.229A19.861,19.861,0,0,0,.011,132.857h7.4a12.535,12.535,0,0,1,2.867-6.906Z" transform="translate(-0.01 -78.883)" fill="#fff"/>
      <path id="Path_257" data-name="Path 257" d="M383.478,132.857h7.4a19.86,19.86,0,0,0-5.035-12.135l-5.229,5.229A12.535,12.535,0,0,1,383.478,132.857Z" transform="translate(-350.876 -78.883)" fill="#fff"/>
      <path id="Path_258" data-name="Path 258" d="M401.773,306.055a12.482,12.482,0,0,1-1.289,4.518c.594.916,1.09,1.691,1.417,2.205a3.52,3.52,0,0,1-1.444,5.058l1.218,1.218a1.174,1.174,0,0,0,1.66,0,19.886,19.886,0,0,0,5.836-13Z" transform="translate(-369.172 -249.737)" fill="#fff"/>
      <path id="Path_259" data-name="Path 259" d="M7.4,306.055H0a19.887,19.887,0,0,0,5.836,13,1.174,1.174,0,0,0,1.66,0l3.556-3.556a1.174,1.174,0,0,0,0-1.66A12.58,12.58,0,0,1,7.4,306.055Z" transform="translate(0 -249.737)" fill="#fff"/>
      <path id="Path_260" data-name="Path 260" d="M283.135,40.182A19.862,19.862,0,0,0,271,35.154v7.4a12.534,12.534,0,0,1,6.906,2.861Z" transform="translate(-249.828)" fill="#fff"/>
      <path id="Path_261" data-name="Path 261" d="M215.176,245.271a3.682,3.682,0,1,0-5.208,5.208c1.814,1.814,10.727,7.505,11.738,8.148a1.172,1.172,0,0,0,1.618-1.618C222.681,256,216.989,247.085,215.176,245.271Z" transform="translate(-192.572 -192.709)" fill="#fff"/>
    </g>
  </g>
</svg>
