<svg xmlns="http://www.w3.org/2000/svg" width="125" height="125" viewBox="0 0 125 125">
  <g id="Group_265" data-name="Group 265" transform="translate(-743 -2376)">
    <path id="Path_65" data-name="Path 65" d="M62.5,0A62.5,62.5,0,1,1,0,62.5,62.5,62.5,0,0,1,62.5,0Z" transform="translate(743 2376)" fill="#9f8268"/>
    <g id="Path_159" data-name="Path 159" transform="translate(750.461 2383.46)" fill="none">
      <path d="M55.039,0A55.039,55.039,0,1,1,0,55.039,55.039,55.039,0,0,1,55.039,0Z" stroke="none"/>
      <path d="M 55.039306640625 4 C 48.14728927612305 4 41.46354675292969 5.348907470703125 35.17374420166016 8.009269714355469 C 29.09648895263672 10.57974243164062 23.63772583007812 14.26041412353516 18.94907379150391 18.94907379150391 C 14.26041412353516 23.63772583007812 10.57974243164062 29.09648895263672 8.009269714355469 35.17374420166016 C 5.348907470703125 41.46354675292969 4 48.14728927612305 4 55.039306640625 C 4 61.93132400512695 5.348907470703125 68.61506652832031 8.009269714355469 74.90486907958984 C 10.57974243164062 80.98212432861328 14.26041412353516 86.44088745117188 18.94907379150391 91.12954711914062 C 23.63772583007812 95.81819915771484 29.09648895263672 99.49887084960938 35.17374420166016 102.0693435668945 C 41.46354675292969 104.7297058105469 48.14728927612305 106.07861328125 55.039306640625 106.07861328125 C 61.93132400512695 106.07861328125 68.61506652832031 104.7297058105469 74.90486907958984 102.0693435668945 C 80.98212432861328 99.49887084960938 86.44088745117188 95.81819915771484 91.12954711914062 91.12954711914062 C 95.81819915771484 86.44088745117188 99.49887084960938 80.98212432861328 102.0693435668945 74.90486907958984 C 104.7297058105469 68.61506652832031 106.07861328125 61.93132400512695 106.07861328125 55.039306640625 C 106.07861328125 48.14728927612305 104.7297058105469 41.46354675292969 102.0693435668945 35.17374420166016 C 99.49887084960938 29.09648895263672 95.81819915771484 23.63772583007812 91.12954711914062 18.94907379150391 C 86.44088745117188 14.26041412353516 80.98212432861328 10.57974243164062 74.90486907958984 8.009269714355469 C 68.61506652832031 5.348907470703125 61.93132400512695 4 55.039306640625 4 M 55.039306640625 0 C 85.43666839599609 0 110.07861328125 24.64194488525391 110.07861328125 55.039306640625 C 110.07861328125 85.43666839599609 85.43666839599609 110.07861328125 55.039306640625 110.07861328125 C 24.64194488525391 110.07861328125 0 85.43666839599609 0 55.039306640625 C 0 24.64194488525391 24.64194488525391 0 55.039306640625 0 Z" stroke="none" fill="#fff"/>
    </g>
  </g>
</svg>
