<svg id="play" xmlns="http://www.w3.org/2000/svg" width="22.914" height="25.647" viewBox="0 0 22.914 25.647">
  <path id="Path_33" data-name="Path 33" d="M44.083,23.635l-15.8,12.254a2.617,2.617,0,0,1-1.012-2.084V13.465a2.615,2.615,0,0,1,1.012-2.083Z" transform="translate(-27.275 -10.812)" fill="#9dc6fb"/>
  <path id="Path_34" data-name="Path 34" d="M300.446,172.945l-3.822,2.207-3.35-.419-1.151-4.082.584-3.908,3.916-.592,3.822,2.206A2.649,2.649,0,0,1,300.446,172.945Z" transform="translate(-278.857 -157.827)" fill="#ffe07d"/>
  <path id="Path_35" data-name="Path 35" d="M64.242,260.5,50.45,268.463a2.635,2.635,0,0,1-2.962-.211L59.742,256Z" transform="translate(-46.476 -243.176)" fill="#dd5790"/>
  <path id="Path_36" data-name="Path 36" d="M64.242,8.322l-4.5,4.5L47.488.57A2.634,2.634,0,0,1,50.45.359Z" transform="translate(-46.476 0)" fill="#95d6a4"/>
  <path id="Path_37" data-name="Path 37" d="M30.261,33.8a2.707,2.707,0,0,0,.048.515l-2.022,1.569A2.616,2.616,0,0,1,27.275,33.8V13.464a2.616,2.616,0,0,1,1.012-2.083L30.31,12.95a2.7,2.7,0,0,0-.048.514Z" transform="translate(-27.275 -10.811)" fill="#80b4fb"/>
  <path id="Path_38" data-name="Path 38" d="M50.625,463.269l-.175.1a2.636,2.636,0,0,1-2.962-.211l1.976-1.976a2.614,2.614,0,0,0,1.01,1.976h0C50.522,463.2,50.573,463.234,50.625,463.269Z" transform="translate(-46.475 -438.082)" fill="#da387d"/>
  <path id="Path_39" data-name="Path 39" d="M50.474.574h0a2.614,2.614,0,0,0-1.01,1.976L47.488.574A2.634,2.634,0,0,1,50.45.362l.175.1c-.052.035-.1.072-.151.11Z" transform="translate(-46.476 -0.003)" fill="#78c2a4"/>
</svg>
