<svg xmlns="http://www.w3.org/2000/svg" xmlns:xlink="http://www.w3.org/1999/xlink" width="1400" height="421" viewBox="0 0 1400 421">
  <defs>
    <clipPath id="clip-Artboard_6">
      <rect width="1400" height="421"/>
    </clipPath>
  </defs>
  <g id="Artboard_6" data-name="Artboard – 6" clip-path="url(#clip-Artboard_6)">
    <rect width="1400" height="421" fill="#fff"/>
    <g id="Group_282" data-name="Group 282" transform="translate(172.129 91.96)">
      <g id="Group_174" data-name="Group 174" transform="translate(-90.358 87.221)" opacity="0.5">
        <g id="Path_197" data-name="Path 197" transform="translate(45.877 23.929)" fill="none">
          <path d="M92.241,0A92.241,92.241,0,1,1,0,92.241,92.161,92.161,0,0,1,92.241,0Z" stroke="none"/>
          <path d="M 92.240966796875 8 C 45.79034423828125 8 8 45.79034423828125 8 92.240966796875 C 8 138.6915893554688 45.79034423828125 176.48193359375 92.240966796875 176.48193359375 C 138.6915893554688 176.48193359375 176.48193359375 138.6915893554688 176.48193359375 92.240966796875 C 176.48193359375 75.72753143310547 171.7085876464844 59.74253082275391 162.6779327392578 46.01409912109375 C 147.0199890136719 22.21087646484375 120.6884307861328 8 92.240966796875 8 M 92.240966796875 0 C 124.4880599975586 0 152.8702850341797 16.54753112792969 169.3615264892578 41.6175537109375 C 178.9195861816406 56.14778137207031 184.48193359375 73.54477691650391 184.48193359375 92.240966796875 C 184.48193359375 143.1842498779297 143.1842498779297 184.48193359375 92.240966796875 184.48193359375 C 41.29768371582031 184.48193359375 0 143.1842498779297 0 92.240966796875 C 0 41.29768371582031 41.29768371582031 0 92.240966796875 0 Z" stroke="none" fill="#fdf4ec"/>
        </g>
        <g id="Path_198" data-name="Path 198" fill="none">
          <path d="M92.241,0A92.241,92.241,0,1,1,0,92.241,92.161,92.161,0,0,1,92.241,0Z" stroke="none"/>
          <path d="M 92.240966796875 8 C 45.79034423828125 8 8 45.79034423828125 8 92.240966796875 C 8 138.6915893554688 45.79034423828125 176.48193359375 92.240966796875 176.48193359375 C 138.6915893554688 176.48193359375 176.48193359375 138.6915893554688 176.48193359375 92.240966796875 C 176.48193359375 75.72753143310547 171.7085876464844 59.74253082275391 162.6779327392578 46.01409912109375 C 147.0199890136719 22.21087646484375 120.6884307861328 8 92.240966796875 8 M 92.240966796875 0 C 124.4880599975586 0 152.8702850341797 16.54753112792969 169.3615264892578 41.6175537109375 C 178.9195861816406 56.14778137207031 184.48193359375 73.54477691650391 184.48193359375 92.240966796875 C 184.48193359375 143.1842498779297 143.1842498779297 184.48193359375 92.240966796875 184.48193359375 C 41.29768371582031 184.48193359375 0 143.1842498779297 0 92.240966796875 C 0 41.29768371582031 41.29768371582031 0 92.240966796875 0 Z" stroke="none" fill="#fdf4ec"/>
        </g>
      </g>
      <g id="Group_173" data-name="Group 173" transform="translate(933.741 -41)" opacity="0.5">
        <g id="Path_199" data-name="Path 199" transform="translate(45.879 23.929)" fill="none">
          <path d="M92.241,0A92.241,92.241,0,1,1,0,92.241,92.161,92.161,0,0,1,92.241,0Z" stroke="none"/>
          <path d="M 92.240966796875 8 C 45.79034423828125 8 8 45.79034423828125 8 92.240966796875 C 8 138.6915893554688 45.79034423828125 176.48193359375 92.240966796875 176.48193359375 C 138.6915893554688 176.48193359375 176.48193359375 138.6915893554688 176.48193359375 92.240966796875 C 176.48193359375 75.72753143310547 171.7085876464844 59.74253082275391 162.6779327392578 46.01409912109375 C 147.0199890136719 22.21087646484375 120.6884307861328 8 92.240966796875 8 M 92.240966796875 0 C 124.4880599975586 0 152.8702850341797 16.54753112792969 169.3615264892578 41.6175537109375 C 178.9195861816406 56.14778137207031 184.48193359375 73.54477691650391 184.48193359375 92.240966796875 C 184.48193359375 143.1842498779297 143.1842498779297 184.48193359375 92.240966796875 184.48193359375 C 41.29768371582031 184.48193359375 0 143.1842498779297 0 92.240966796875 C 0 41.29768371582031 41.29768371582031 0 92.240966796875 0 Z" stroke="none" fill="#fdf4ec"/>
        </g>
        <g id="Path_200" data-name="Path 200" fill="none">
          <path d="M92.241,0A92.241,92.241,0,1,1,0,92.241,92.161,92.161,0,0,1,92.241,0Z" stroke="none"/>
          <path d="M 92.240966796875 8 C 45.79034423828125 8 8 45.79034423828125 8 92.240966796875 C 8 138.6915893554688 45.79034423828125 176.48193359375 92.240966796875 176.48193359375 C 138.6915893554688 176.48193359375 176.48193359375 138.6915893554688 176.48193359375 92.240966796875 C 176.48193359375 75.72753143310547 171.7085876464844 59.74253082275391 162.6779327392578 46.01409912109375 C 147.0199890136719 22.21087646484375 120.6884307861328 8 92.240966796875 8 M 92.240966796875 0 C 124.4880599975586 0 152.8702850341797 16.54753112792969 169.3615264892578 41.6175537109375 C 178.9195861816406 56.14778137207031 184.48193359375 73.54477691650391 184.48193359375 92.240966796875 C 184.48193359375 143.1842498779297 143.1842498779297 184.48193359375 92.240966796875 184.48193359375 C 41.29768371582031 184.48193359375 0 143.1842498779297 0 92.240966796875 C 0 41.29768371582031 41.29768371582031 0 92.240966796875 0 Z" stroke="none" fill="#fdf4ec"/>
        </g>
      </g>
    </g>
  </g>
</svg>
