<svg id="Group_146" data-name="Group 146" xmlns="http://www.w3.org/2000/svg" width="50" height="43.195" viewBox="0 0 50 43.195">
  <path id="Path_124" data-name="Path 124" d="M.011,65.864A11.934,11.934,0,1,0,8.058,54.612C10.737,39.25,22.716,29.344,11.611,37.5-.7,46.538,0,65.5.011,65.848.011,65.853.011,65.858.011,65.864Z" transform="translate(0 -34.571)" fill="#fdf4ec"/>
  <path id="Path_125" data-name="Path 125" d="M266.071,65.864a11.934,11.934,0,1,0,8.047-11.252C276.8,39.25,288.777,29.344,277.672,37.5c-12.314,9.041-11.614,28-11.6,28.351C266.072,65.853,266.071,65.858,266.071,65.864Z" transform="translate(-239.876 -34.571)" fill="#fdf4ec"/>
</svg>
