<svg xmlns="http://www.w3.org/2000/svg" xmlns:xlink="http://www.w3.org/1999/xlink" width="1400" height="1109" viewBox="0 0 1400 1109">
  <defs>
    <clipPath id="clip-Artboard_3">
      <rect width="1400" height="1109"/>
    </clipPath>
  </defs>
  <g id="Artboard_3" data-name="Artboard – 3" clip-path="url(#clip-Artboard_3)">
    <rect width="1400" height="1109" fill="#fff"/>
    <g id="Group_279" data-name="Group 279">
      <g id="Path_190" data-name="Path 190" transform="translate(851 90)" fill="none" opacity="0.5">
        <path d="M231.5,0A231.432,231.432,0,0,1,463,231.5C463,359.354,359.354,463,231.5,463S0,359.354,0,231.5,103.646,0,231.5,0Z" stroke="none"/>
        <path d="M 231.5 8 C 108.2616577148438 8 8 108.2616577148438 8 231.5 C 8 354.7383422851562 108.2616577148438 455 231.5 455 C 354.7383422851562 455 455 354.7383422851562 455 231.5 C 455 187.68994140625 442.3329467773438 145.2766723632812 418.3682556152344 108.845458984375 C 376.8302001953125 45.69927978515625 306.9728698730469 8 231.5 8 M 231.5 0 C 312.4315185546875 0 383.6632080078125 41.52987670898438 425.0518798828125 104.4489440917969 C 449.0400085449219 140.9158020019531 463 184.5776062011719 463 231.5 C 463 359.3539428710938 359.3539428710938 463 231.5 463 C 103.6460571289062 463 0 359.3539428710938 0 231.5 C 0 103.6460571289062 103.6460571289062 0 231.5 0 Z" stroke="none" fill="#fdf4ec"/>
      </g>
      <g id="Path_191" data-name="Path 191" transform="translate(604 254)" fill="none" opacity="0.5">
        <path d="M231.5,0A231.432,231.432,0,0,1,463,231.5C463,359.354,359.354,463,231.5,463S0,359.354,0,231.5,103.646,0,231.5,0Z" stroke="none"/>
        <path d="M 231.5 8 C 108.2616577148438 8 8 108.2616577148438 8 231.5 C 8 354.7383422851562 108.2616577148438 455 231.5 455 C 354.7383422851562 455 455 354.7383422851562 455 231.5 C 455 187.68994140625 442.3329467773438 145.2766723632812 418.3682556152344 108.845458984375 C 376.8302001953125 45.69927978515625 306.9728698730469 8 231.5 8 M 231.5 0 C 312.4315185546875 0 383.6632080078125 41.52987670898438 425.0518798828125 104.4489440917969 C 449.0400085449219 140.9158020019531 463 184.5776062011719 463 231.5 C 463 359.3539428710938 359.3539428710938 463 231.5 463 C 103.6460571289062 463 0 359.3539428710938 0 231.5 C 0 103.6460571289062 103.6460571289062 0 231.5 0 Z" stroke="none" fill="#fdf4ec"/>
      </g>
      <path id="Icon_awesome-money-check" data-name="Icon awesome-money-check" d="M0,161.036A12.216,12.216,0,0,0,12.214,173.25H232.071a12.216,12.216,0,0,0,12.214-12.214V38.893H0ZM171,81.643a6.105,6.105,0,0,1,6.107-6.107H213.75a6.105,6.105,0,0,1,6.107,6.107V93.857a6.105,6.105,0,0,1-6.107,6.107H177.107A6.105,6.105,0,0,1,171,93.857Zm0,45.8a3.053,3.053,0,0,1,3.054-3.054H216.8a3.053,3.053,0,0,1,3.054,3.054v6.107a3.053,3.053,0,0,1-3.054,3.054h-42.75A3.053,3.053,0,0,1,171,133.554ZM24.429,90.8a3.053,3.053,0,0,1,3.054-3.054H143.518a3.053,3.053,0,0,1,3.054,3.054v6.107a3.053,3.053,0,0,1-3.054,3.054H27.482a3.053,3.053,0,0,1-3.054-3.054Zm0,36.643a3.053,3.053,0,0,1,3.054-3.054H94.661a3.053,3.053,0,0,1,3.054,3.054v6.107a3.053,3.053,0,0,1-3.054,3.054H27.482a3.053,3.053,0,0,1-3.054-3.054ZM238.179,2.25H6.107A6.105,6.105,0,0,0,0,8.357V26.679H244.286V8.357A6.105,6.105,0,0,0,238.179,2.25Z" transform="translate(1139.799 715.774) rotate(57)" fill="#fdf4ec" opacity="0.5"/>
      <path id="Icon_ionic-ios-phone-portrait" data-name="Icon ionic-ios-phone-portrait" d="M129.267,2.25H30.7A20.451,20.451,0,0,0,10.125,22.7V259.49c0,11.436,9.2,21.193,20.572,21.193h98.508c11.374,0,20.075-9.758,20.075-21.193V22.7A19.943,19.943,0,0,0,129.267,2.25ZM70.411,16.545H89.056a2.486,2.486,0,0,1,0,4.972H70.411a2.486,2.486,0,0,1,0-4.972Zm9.633,254.817a10.814,10.814,0,1,1,10.814-10.814A10.822,10.822,0,0,1,80.044,271.361Zm58.111-30.454H21.312a1.247,1.247,0,0,1-1.243-1.243V35.19a1.247,1.247,0,0,1,1.243-1.243H138.155A1.247,1.247,0,0,1,139.4,35.19V239.665A1.247,1.247,0,0,1,138.155,240.908Z" transform="matrix(0.809, 0.588, -0.588, 0.809, 272.672, 60.909)" fill="#fdf4ec" opacity="0.5"/>
      <g id="Path_189" data-name="Path 189" transform="translate(116 613)" fill="none" opacity="0.5">
        <path d="M231.5,0A231.432,231.432,0,0,1,463,231.5C463,359.354,359.354,463,231.5,463S0,359.354,0,231.5,103.646,0,231.5,0Z" stroke="none"/>
        <path d="M 231.5 8 C 108.2616577148438 8 8 108.2616577148438 8 231.5 C 8 354.7383422851562 108.2616577148438 455 231.5 455 C 354.7383422851562 455 455 354.7383422851562 455 231.5 C 455 187.68994140625 442.3329467773438 145.2766723632812 418.3682556152344 108.845458984375 C 376.8302001953125 45.69927978515625 306.9728698730469 8 231.5 8 M 231.5 0 C 312.4315185546875 0 383.6632080078125 41.52987670898438 425.0518798828125 104.4489440917969 C 449.0400085449219 140.9158020019531 463 184.5776062011719 463 231.5 C 463 359.3539428710938 359.3539428710938 463 231.5 463 C 103.6460571289062 463 0 359.3539428710938 0 231.5 C 0 103.6460571289062 103.6460571289062 0 231.5 0 Z" stroke="none" fill="#fdf4ec"/>
      </g>
    </g>
  </g>
</svg>
